# xmcd
#
# Track frame offsets:
#	150
#	12320
#	22927
#	32920
#	45261
#	52260
#	63212
#	72041
#	84221
#	99644
#	114690
#	126978
#	132897
#	145543
#	157293
#	168155
#	179382
#	193549
#	205184
#	215490
#
# Disc length: 3036 seconds
# Revision: 0
# Processed by: cddbd v1.5.2PL0 Copyright (c) Steve Scherf et al.
# Submitted via: dBpowerAMP V12.0
#
DISCID=150bda14
DTITLE=Various Artist - Pioneers of Country Music, Disc 2
DYEAR=1900
DGENRE=Country
TTITLE0=Hank Williams - Your Cheatin' Heart
TTITLE1=Roger Miller - King of The Road
TTITLE2=Tex Ritter - Bull Weevil
TTITLE3=Porter Wagoner - A Satisfied Mind
TTITLE4=Faron Young - Goin' Steady
TTITLE5=Porter Wagoner - Misery Loves Company
TTITLE6=Burl Ives - Little Bitty Tear
TTITLE7=Dottie West - Crazy
TTITLE8=Ferlin Husky - Phantom 309
TTITLE9=Gene Autry - The Last Round Up
TTITLE10=Hank Williams - Honky Tonkin'
TTITLE11=Jim Reeves - Have I Told You Lately That I Loved You
TTITLE12=Kitty Wells - Making Believe
TTITLE13=Roy Dursky - Three Hearts in a Triangle
TTITLE14=Faron Young - Wine Me Up
TTITLE15=Porter Wagoner - Eat, Drink and Be Merry
TTITLE16=Gene Autry - Mexicali Rose
TTITLE17=Dottie West - It's A Man's World
TTITLE18=Ferlin Husky - Wings of A Dove
TTITLE19=Hank Williams - Lovesick Blues
EXTD=
EXTT0=
EXTT1=
EXTT2=
EXTT3=
EXTT4=
EXTT5=
EXTT6=
EXTT7=
EXTT8=
EXTT9=
EXTT10=
EXTT11=
EXTT12=
EXTT13=
EXTT14=
EXTT15=
EXTT16=
EXTT17=
EXTT18=
EXTT19=
PLAYORDER=
